<svg width="44" height="44" viewBox="0 0 44 44" fill="none" xmlns="http://www.w3.org/2000/svg">
<path d="M32.0009 20.48V24C32.0009 26.6522 30.9473 29.1956 29.0719 31.071C27.1965 32.9464 24.6531 34 22.0009 34C20.9691 33.995 19.9439 33.8332 18.9609 33.52" stroke="#FFA9A9" stroke-width="4" stroke-linecap="round" stroke-linejoin="round"/>
<path d="M14 30C12.7018 28.269 12 26.1638 12 24V12C12 9.34784 13.0535 6.80432 14.9289 4.92896C16.8043 3.0536 19.3478 2 22 2C24.6522 2 27.1956 3.0536 29.071 4.92896C30.9464 6.80432 32 9.34784 32 12" stroke="#FFA9A9" stroke-width="4" stroke-linecap="round" stroke-linejoin="round"/>
<path d="M8.42163 35.68C5.62537 32.432 4.09187 28.2858 4.10161 24" stroke="#FFA9A9" stroke-width="4" stroke-linecap="round" stroke-linejoin="round"/>
<path d="M40.0014 24C39.999 27.1644 39.1624 30.2722 37.576 33.0102C35.9896 35.7482 33.7094 38.0196 30.9654 39.5954C28.2214 41.1714 25.1102 41.9958 21.946 41.986C18.7816 41.9764 15.6757 41.1328 12.9414 39.54" stroke="#FFA9A9" stroke-width="4" stroke-linecap="round" stroke-linejoin="round"/>
<path d="M42 2L2 42" stroke="#FFA9A9" stroke-width="4" stroke-linecap="round" stroke-linejoin="round"/>
</svg>
