<svg width="16" height="15" viewBox="0 0 16 15" fill="none" xmlns="http://www.w3.org/2000/svg">
<path d="M5.82759 1.5H4C2.34315 1.5 1 2.84315 1 4.5V10.5C1 12.1569 2.34315 13.5 4 13.5H9.58621C11.2431 13.5 12.5862 12.1569 12.5862 10.5V8.5M14.7159 2.32288C14.3949 0.993202 12.8134 0.431902 11.726 1.26175L4.90493 6.46729C4.87686 6.48872 4.85496 6.51719 4.84146 6.54981L3.47099 9.86176C3.44375 9.9276 3.49214 10 3.5634 10H6.7235C6.76857 10 6.81233 9.98477 6.84767 9.95678L14.0507 4.25183C14.6295 3.79346 14.8891 3.04054 14.7159 2.32288Z" stroke="white" stroke-width="1.6" stroke-linecap="round"/>
</svg>
